<svg width="22" height="27" viewBox="0 0 22 27" fill="none" xmlns="http://www.w3.org/2000/svg">
<path d="M21.5996 6.66895V24.5361C21.5995 25.7142 20.6449 26.6689 19.4668 26.6689H2.13379C0.955654 26.6689 0.000105137 25.7142 0 24.5361V2.13574C0.000106552 0.957623 0.955645 0.00292969 2.13379 0.00292969H14.9336L21.5996 6.66895ZM10.1338 19V20.333H11.4668V19H10.1338ZM10.8672 9.66699C10.4005 9.66699 9.99961 9.73291 9.59961 9.86621C9.13322 9.9996 8.79999 10.2 8.4668 10.5332C8.1335 10.7999 7.8667 11.1335 7.7334 11.4668C7.60002 11.8002 7.4668 12.3334 7.4668 13H8.7998C8.79982 11.6667 9.46671 10.7335 10.7998 10.7334C11.3998 10.7334 11.8669 10.9333 12.2002 11.2666C12.5336 11.6 12.7334 11.9337 12.7334 12.4004C12.7333 12.8668 12.6001 13.2004 12.4668 13.4004C12.3334 13.6004 11.9996 13.9339 11.5332 14.4004C11.0667 14.8668 10.8669 15.2003 10.667 15.4668C10.4671 15.7334 10.3333 15.9998 10.2666 16.333C10.1999 16.6663 10.1338 17.0004 10.1338 17.667H11.4668C11.4668 17.0004 11.3998 16.7999 11.5332 16.5332C11.6665 16.2665 11.7336 15.9998 11.9336 15.7998C12.1335 15.5998 12.334 15.2663 12.8672 14.7998C13.4003 14.3332 13.7339 13.9328 13.8672 13.5996C14.0004 13.2664 14.1338 12.933 14.1338 12.5332C14.1338 11.6666 13.8001 11.0001 13.2002 10.4668C12.5337 9.93357 11.8003 9.66707 10.8672 9.66699Z" fill="#CCCCCC"/>
</svg>
