<svg width="24" height="24" viewBox="0 0 24 24" fill="none" xmlns="http://www.w3.org/2000/svg">
<path d="M11.9982 16.918C12.2447 16.918 12.4485 16.8384 12.6095 16.6792C12.7706 16.5201 12.8512 16.3172 12.8512 16.0707C12.8512 15.8244 12.7716 15.6206 12.6125 15.4595C12.4533 15.2985 12.2506 15.218 12.0042 15.218C11.7577 15.218 11.554 15.2976 11.393 15.4567C11.2318 15.6159 11.1512 15.8186 11.1512 16.065C11.1512 16.3113 11.2308 16.5151 11.39 16.6762C11.5491 16.8374 11.7519 16.918 11.9982 16.918ZM12.0625 13.118C12.2828 13.118 12.4693 13.0409 12.622 12.8867C12.7748 12.7326 12.8512 12.5443 12.8512 12.322V7.75547C12.8512 7.53964 12.7736 7.35439 12.6185 7.19972C12.4633 7.04522 12.2774 6.96797 12.0607 6.96797C11.8377 6.96797 11.6498 7.04522 11.497 7.19972C11.3443 7.35439 11.268 7.53964 11.268 7.75547V12.322C11.268 12.5443 11.3453 12.7326 11.5 12.8867C11.6546 13.0409 11.8421 13.118 12.0625 13.118ZM12.0067 21.8345C10.6494 21.8345 9.37347 21.5754 8.17897 21.0572C6.98447 20.5389 5.94305 19.8347 5.05472 18.9447C4.16622 18.0546 3.46297 17.0128 2.94497 15.8195C2.42697 14.626 2.16797 13.3508 2.16797 11.994C2.16797 10.6356 2.42705 9.35889 2.94522 8.16372C3.46355 6.96839 4.16772 5.92789 5.05772 5.04222C5.94789 4.15655 6.98964 3.45605 8.18297 2.94072C9.37647 2.42555 10.6516 2.16797 12.0085 2.16797C13.3668 2.16797 14.6436 2.42639 15.839 2.94322C17.0343 3.45989 18.0748 4.16122 18.9605 5.04722C19.846 5.93322 20.5464 6.9738 21.0617 8.16897C21.5769 9.36414 21.8345 10.6397 21.8345 11.9957C21.8345 13.3531 21.5767 14.629 21.0612 15.8235C20.5457 17.018 19.8444 18.0584 18.9572 18.9447C18.0699 19.8311 17.0286 20.5343 15.8335 21.0545C14.6383 21.5745 13.3627 21.8345 12.0067 21.8345ZM12.009 20.2512C14.2955 20.2512 16.2408 19.4466 17.845 17.8372C19.4491 16.2279 20.2512 14.28 20.2512 11.9935C20.2512 9.70697 19.4504 7.76164 17.8487 6.15747C16.2469 4.5533 14.2979 3.75122 12.0017 3.75122C9.72089 3.75122 7.77555 4.55205 6.16572 6.15372C4.55605 7.75555 3.75122 9.70455 3.75122 12.0007C3.75122 14.2816 4.55589 16.2269 6.16522 17.8367C7.77455 19.4464 9.72247 20.2512 12.009 20.2512Z" fill="#A1A1A1"/>
</svg>
